<?xml version="1.0" encoding="utf-8"?>
<!-- Generator: Adobe Illustrator 22.1.0, SVG Export Plug-In . SVG Version: 6.00 Build 0)  -->
<svg version="1.1" id="Layer_1" xmlns="http://www.w3.org/2000/svg" xmlns:xlink="http://www.w3.org/1999/xlink" x="0px" y="0px"
	 viewBox="0 0 110 110" style="enable-background:new 0 0 110 110;" xml:space="preserve">
<style type="text/css">
	.st0{fill:#FFFFFF;}
</style>
<g>
	<g>
		<path class="st0" d="M7.5,60.7c27.7,0,55.5,0,83.2,0c3.9,0,7.9,0,11.8,0c6.4,0,6.4-10,0-10c-27.7,0-55.5,0-83.2,0
			c-3.9,0-7.9,0-11.8,0C1,50.7,1,60.7,7.5,60.7L7.5,60.7z"/>
	</g>
</g>
<g>
	<g>
		<path class="st0" d="M49.5,7.7c0,27.7,0,55.5,0,83.2c0,3.9,0,7.9,0,11.8c0,6.4,10,6.4,10,0c0-27.7,0-55.5,0-83.2
			c0-3.9,0-7.9,0-11.8C59.5,1.3,49.5,1.3,49.5,7.7L49.5,7.7z"/>
	</g>
</g>
</svg>
