<?xml version="1.0" encoding="utf-8"?>
<!-- Generator: Adobe Illustrator 22.1.0, SVG Export Plug-In . SVG Version: 6.00 Build 0)  -->
<svg version="1.1" id="Layer_1" xmlns="http://www.w3.org/2000/svg" xmlns:xlink="http://www.w3.org/1999/xlink" x="0px" y="0px"
	 viewBox="0 0 25 25" style="enable-background:new 0 0 25 25;" xml:space="preserve">
<style type="text/css">
	.st0{clip-path:url(#SVGID_2_);fill:#C9D0D2;}
	.st1{fill:#FFFFFF;}
</style>
<g>
	<g>
		<g>
			<g>
				<defs>
					<rect id="SVGID_1_" width="25" height="25"/>
				</defs>
				<clipPath id="SVGID_2_">
					<use xlink:href="#SVGID_1_"  style="overflow:visible;"/>
				</clipPath>
				<path class="st0" d="M12.5,25C19.4,25,25,19.4,25,12.5S19.4,0,12.5,0S0,5.6,0,12.5S5.6,25,12.5,25"/>
			</g>
		</g>
	</g>
</g>
<path class="st1" d="M14,5.5l1,0.6c0.3,0.2,0.3,0.5,0.1,0.7l-4.9,5.9c-0.2,0.2-0.1,0.5,0.1,0.7l5.5,4.4c0.2,0.2,0.3,0.5,0.1,0.7
	l-0.7,0.9c-0.2,0.2-0.5,0.3-0.7,0.1L7,13.7c-0.2-0.2-0.3-0.5-0.1-0.7l6.4-7.5C13.5,5.4,13.8,5.3,14,5.5z"/>
</svg>
