<?xml version="1.0" encoding="utf-8"?>
<!-- Generator: Adobe Illustrator 22.1.0, SVG Export Plug-In . SVG Version: 6.00 Build 0)  -->
<svg version="1.1" id="Layer_1" xmlns="http://www.w3.org/2000/svg" xmlns:xlink="http://www.w3.org/1999/xlink" x="0px" y="0px"
	 viewBox="0 0 25 25" style="enable-background:new 0 0 25 25;" xml:space="preserve">
<style type="text/css">
	.st0{clip-path:url(#SVGID_2_);fill:#61C2AC;}
	.st1{clip-path:url(#SVGID_4_);fill:#FFFFFF;}
</style>
<g>
	<g>
		<defs>
			<rect id="SVGID_1_" width="25" height="25"/>
		</defs>
		<clipPath id="SVGID_2_">
			<use xlink:href="#SVGID_1_"  style="overflow:visible;"/>
		</clipPath>
		<path class="st0" d="M12.5,25C19.3,25,25,19.5,25,12.5S19.3,0,12.5,0S0,5.5,0,12.5S5.5,25,12.5,25"/>
	</g>
	<g>
		<defs>
			<rect id="SVGID_3_" width="25" height="25"/>
		</defs>
		<clipPath id="SVGID_4_">
			<use xlink:href="#SVGID_3_"  style="overflow:visible;"/>
		</clipPath>
		<path class="st1" d="M19.8,4.2c0,0,0.4-1-0.5-0.4L3.9,12.5l2.9,2.7c0,0,0.8,0.8,1.5,0l5.8-5.7c0,0,0.8-0.8,0.2,0.1l-4.5,6.6
			c0,0-0.7,0.9-0.8,2l-0.5,4.3l2.7-3.4l0.8,0.7c0,0,0.8,0.7,1.2-0.3L19.8,4.2z"/>
	</g>
</g>
</svg>
