<?xml version="1.0" encoding="utf-8"?>
<!-- Generator: Adobe Illustrator 22.1.0, SVG Export Plug-In . SVG Version: 6.00 Build 0)  -->
<svg version="1.1" id="Layer_1" xmlns="http://www.w3.org/2000/svg" xmlns:xlink="http://www.w3.org/1999/xlink" x="0px" y="0px"
	 viewBox="0 0 25 25" style="enable-background:new 0 0 25 25;" xml:space="preserve">
<style type="text/css">
	.st0{clip-path:url(#SVGID_2_);fill:#61C2AC;}
	.st1{fill:#FFFFFF;}
</style>
<g>
	<g>
		<defs>
			<rect id="SVGID_1_" width="25" height="25"/>
		</defs>
		<clipPath id="SVGID_2_">
			<use xlink:href="#SVGID_1_"  style="overflow:visible;"/>
		</clipPath>
		<path class="st0" d="M12.5,25C19.4,25,25,19.4,25,12.5S19.4,0,12.5,0S0,5.6,0,12.5S5.6,25,12.5,25"/>
	</g>
	<g>
		<ellipse class="st1" cx="12.3" cy="5.2" rx="3.1" ry="3"/>
		<path class="st1" d="M7.2,14.1c0,0,3.9-14.4,10.6,0c0,0-1.5,4.4-3.4-3.1c0,0,0.1,3.1,0.8,6.3c0.7,3.1,1.1,5.2,0.8,5.3
			c-1.3,0.9-2.6,0.4-3.1-3.9c-0.6-4.8-0.1,3.6-1.4,4.1c-1.3,0.5-2.8,0.1-1.8-5.6s0.8-6.4,0.8-6.4S8.8,18.3,7.2,14.1z"/>
	</g>
</g>
</svg>
