<svg id="Layer_1" data-name="Layer 1" xmlns="http://www.w3.org/2000/svg" xmlns:xlink="http://www.w3.org/1999/xlink" viewBox="0 0 25 25"><defs><style>.cls-1{fill:none;}.cls-2{clip-path:url(#clip-path);}.cls-3{fill:#c9d0d2;}.cls-4{fill:#fff;}</style><clipPath id="clip-path"><rect class="cls-1" width="25" height="25"/></clipPath></defs><title>Artboard 1</title><g class="cls-2"><path class="cls-3" d="M12.5,25A12.5,12.5,0,1,0,0,12.5,12.5,12.5,0,0,0,12.5,25"/></g><path class="cls-4" d="M7.75,18.61l9.74-9.74,1.38-1.38A.83.83,0,0,0,17.7,6.32L8,16.06,6.58,17.44a.83.83,0,0,0,1.17,1.17Z"/><path class="cls-4" d="M6.46,7.49l9.74,9.74,1.38,1.38a.83.83,0,0,0,1.17-1.17L9,7.7,7.63,6.32A.83.83,0,0,0,6.46,7.49Z"/></svg>