<svg id="Layer_1" data-name="Layer 1" xmlns="http://www.w3.org/2000/svg" xmlns:xlink="http://www.w3.org/1999/xlink" viewBox="0 0 25 25"><defs><style>.cls-1,.cls-4{fill:none;}.cls-2{clip-path:url(#clip-path);}.cls-3{fill:#1fa6c0;}.cls-4{stroke:#fff;stroke-linecap:round;stroke-miterlimit:10;stroke-width:2px;}.cls-5{fill:#fff;}</style><clipPath id="clip-path"><rect class="cls-1" width="25" height="25"/></clipPath></defs><title>Artboard 1</title><g class="cls-2"><path class="cls-3" d="M12.5,25A12.5,12.5,0,1,0,0,12.5,12.5,12.5,0,0,0,12.5,25"/></g><path class="cls-4" d="M5.82,8.49c2.95-2.81,9.59-7.34,15.43,1.69"/><polygon class="cls-5" points="11.03 7.9 6.24 8.07 6.07 3.28 4.11 5.38 4.28 10.18 9.07 10.01 11.03 7.9"/><path class="cls-4" d="M19.7,17.12c-2.95,2.82-9.58,7.35-15.42-1.68"/><polygon class="cls-5" points="14.49 17.71 19.28 17.54 19.45 22.34 21.41 20.23 21.25 15.44 16.45 15.61 14.49 17.71"/></svg>